<?xml version="1.0" encoding="iso-8859-1"?>
<!-- Generator: Adobe Illustrator 19.0.0, SVG Export Plug-In . SVG Version: 6.00 Build 0)  -->
<svg version="1.1" id="Layer_1" xmlns="http://www.w3.org/2000/svg" xmlns:xlink="http://www.w3.org/1999/xlink" x="0px" y="0px"
	 viewBox="0 0 512 512" style="enable-background:new 0 0 512 512;" xml:space="preserve">
<g>
	<path style="fill:#6E76E5;" d="M318.061,387.879H256h-62.061c-12.853,0-23.273,10.418-23.273,23.273
		c0,12.853,10.42,23.273,23.273,23.273H256h62.061c12.853,0,23.273-10.42,23.273-23.273
		C341.333,398.297,330.913,387.879,318.061,387.879z"/>
	<path style="fill:#6E76E5;" d="M488.727,201.697h-62.768h-24.612h-25.142H256H135.795h-25.142H86.041H23.273
		C10.42,201.697,0,212.115,0,224.97c0,12.853,10.42,23.273,23.273,23.273h80.643h0.13H256h232.727
		c12.853,0,23.273-10.42,23.273-23.273C512,212.115,501.58,201.697,488.727,201.697z"/>
</g>
<path style="fill:#FF6243;" d="M256,77.576c-78.026,0-146.651,51.181-169.959,124.121h24.612h25.142H256h120.205h25.142h24.612
	C402.648,128.771,333.987,77.576,256,77.576z"/>
<path style="fill:#6E76E5;" d="M426.667,294.788H302.545c-12.853,0-23.273,10.418-23.273,23.273
	c0,12.853,10.42,23.273,23.273,23.273h124.121c12.853,0,23.273-10.42,23.273-23.273
	C449.939,305.206,439.519,294.788,426.667,294.788z"/>
<path style="fill:#B3D8F4;" d="M104.046,248.242h-0.13c0.02,0,0.04,0.003,0.061,0.003
	C103.998,248.246,104.023,248.242,104.046,248.242z"/>
<path style="fill:#FF0C38;" d="M86.041,201.697h24.612h25.142H256V77.576l0,0C177.974,77.576,109.349,128.757,86.041,201.697z"/>
<g>
	<path style="fill:#424EDE;" d="M135.795,201.697h-25.142H86.041H23.273C10.42,201.697,0,212.115,0,224.97
		c0,12.853,10.42,23.273,23.273,23.273h80.643h0.13H256v-46.545H135.795z"/>
	<path style="fill:#424EDE;" d="M170.667,411.151c0,12.853,10.42,23.273,23.273,23.273H256v-46.545h-62.061
		C181.087,387.879,170.667,398.297,170.667,411.151z"/>
	<path style="fill:#424EDE;" d="M62.061,318.061c0,12.853,10.42,23.273,23.273,23.273h124.121c12.853,0,23.273-10.42,23.273-23.273
		c0-12.854-10.42-23.273-23.273-23.273H85.333C72.481,294.788,62.061,305.206,62.061,318.061z"/>
</g>
<g>
</g>
<g>
</g>
<g>
</g>
<g>
</g>
<g>
</g>
<g>
</g>
<g>
</g>
<g>
</g>
<g>
</g>
<g>
</g>
<g>
</g>
<g>
</g>
<g>
</g>
<g>
</g>
<g>
</g>
</svg>
